# xmcd
#
# Track frame offsets:
#	150
#	9114
#	20490
#	39532
#	50855
#	61647
#	76294
#	84825
#	95568
#	110255
#	122275
#	133598
#	144321
#	155509
#	166708
#	180482
#	190806
#	205424
#	225246
#	236653
#
# Disc length: 3301 seconds
#
# Revision: 0
# Processed by: cddbd v1.5.2PL0 Copyright (c) Steve Scherf et al.
# Submitted via: EasyCDDAExtractor 12.0.2.1
#
DISCID=eb0ce314
DTITLE=Various Artist - The Rat Pack 100 Hits Cd 3
DYEAR=2006
DGENRE=Blues
TTITLE0=Frank Sinatra - They Can't Take That Away From Me
TTITLE1=Dean Martin and Frank Sinatra - That's Amore
TTITLE2=Frank Sinatra - Stormy Weather
TTITLE3=Dean Martin - Be Honest With Me
TTITLE4=Sammy Davis Jr - Azure
TTITLE5=Frank Sinatra - The Lady Is A Tramp
TTITLE6=Dean Martin - I Don't Care If The Sun Don't Shine
TTITLE7=Frank Sinatra - I Guess I'll Have To Change My Plan
TTITLE8=Dean Martin - I'm Gonna Paper All My Walls With Your Love Letters
TTITLE9=Sammy Davis Jr - Got A Great Big Shovel
TTITLE10=Frank Sinatra - My Funny Valentine
TTITLE11=Dean Martin - Kiss
TTITLE12=Frank Sinatra - Sunday
TTITLE13=Dean Martin - Oh Marie
TTITLE14=Sammy Davis Jr - Inka Tinka
TTITLE15=Frank Sinatra - You're Getting To Be A Habit With Me
TTITLE16=Sammy Davis Jr - The Way You Look Tonight
TTITLE17=Frank Sinatra - We'll Be Together Again
TTITLE18=Sammy Davis Jr - Yours Is My Heart Alone
TTITLE19=Frank Sinatra - Too Marvelous For Words
EXTD=
EXTT0=
EXTT1=
EXTT2=
EXTT3=
EXTT4=
EXTT5=
EXTT6=
EXTT7=
EXTT8=
EXTT9=
EXTT10=
EXTT11=
EXTT12=
EXTT13=
EXTT14=
EXTT15=
EXTT16=
EXTT17=
EXTT18=
EXTT19=
PLAYORDER=
